<svg width="340" height="200" viewBox="0 0 340 200" fill="none" xmlns="http://www.w3.org/2000/svg">
<path d="M85.7036 44.7239H67.9498C67.6255 42.9194 66.9635 41.3165 65.9637 39.9154C64.9638 38.493 63.6803 37.283 62.113 36.2852C60.5457 35.2874 58.7352 34.5231 56.6814 33.9924C54.6548 33.4617 52.4524 33.1963 50.0745 33.1963C45.7779 33.1963 42.0353 34.0349 38.8466 35.712C35.658 37.3679 33.1854 39.788 31.429 42.9724C29.6725 46.1356 28.7943 49.9781 28.7943 54.5C28.7943 59.1492 29.6725 63.0554 31.429 66.2186C33.2125 69.3818 35.6985 71.7701 38.8872 73.3836C42.0758 74.997 45.7644 75.8037 49.9529 75.8037C52.3038 75.8037 54.4791 75.5596 56.4788 75.0713C58.5055 74.583 60.3025 73.8718 61.8698 72.9377C63.4371 71.9824 64.7341 70.8254 65.761 69.4667C66.8149 68.108 67.5445 66.5583 67.9498 64.8175L85.7036 64.8812C85.2442 67.8745 84.0957 70.7617 82.2582 73.5428C80.4477 76.3026 78.0022 78.7758 74.9216 80.9624C71.8681 83.1278 68.22 84.8474 63.9775 86.1212C59.762 87.3737 54.9925 88 49.6691 88C42.265 88 35.6445 86.6838 29.8076 84.0513C23.9978 81.4189 19.404 77.6082 16.0262 72.6193C12.6754 67.6304 11 61.5906 11 54.5C11 47.3882 12.7024 41.3378 16.1072 36.3489C19.5121 31.3599 24.1329 27.5599 29.9698 24.9487C35.8066 22.3162 42.3731 21 49.6691 21C54.4791 21 58.9378 21.5307 63.0452 22.5922C67.1797 23.6537 70.8412 25.2034 74.0299 27.2414C77.2185 29.2582 79.8127 31.7315 81.8123 34.6611C83.839 37.5908 85.1361 40.945 85.7036 44.7239Z" fill="white"/>
<path d="M174.574 54.5C174.574 61.6118 172.858 67.6622 169.426 72.6511C166.021 77.64 161.373 81.4507 155.482 84.0832C149.618 86.6944 143.025 88 135.702 88C128.325 88 121.704 86.6838 115.84 84.0513C109.976 81.4189 105.342 77.6082 101.937 72.6193C98.5325 67.6304 96.8301 61.5906 96.8301 54.5C96.8301 47.3882 98.5325 41.3378 101.937 36.3489C105.342 31.3599 109.976 27.5599 115.84 24.9487C121.704 22.3162 128.325 21 135.702 21C143.025 21 149.618 22.3162 155.482 24.9487C161.373 27.5599 166.021 31.3599 169.426 36.3489C172.858 41.3378 174.574 47.3882 174.574 54.5ZM156.779 54.5C156.779 49.8932 155.901 46.0082 154.145 42.8451C152.415 39.6819 149.97 37.283 146.808 35.6483C143.646 34.0136 139.944 33.1963 135.702 33.1963C131.459 33.1963 127.757 34.0136 124.596 35.6483C121.434 37.283 118.975 39.6819 117.218 42.8451C115.489 46.0082 114.624 49.8932 114.624 54.5C114.624 59.1068 115.489 62.9918 117.218 66.1549C118.975 69.3181 121.434 71.717 124.596 73.3517C127.757 74.9864 131.459 75.8037 135.702 75.8037C139.944 75.8037 143.646 74.9864 146.808 73.3517C149.97 71.717 152.415 69.3181 154.145 66.1549C155.901 62.9918 156.779 59.1068 156.779 54.5Z" fill="white"/>
<path d="M263.859 54.5C263.859 61.6118 262.143 67.6622 258.711 72.6511C255.307 77.64 250.659 81.4507 244.768 84.0832C238.904 86.6944 232.31 88 224.987 88C217.61 88 210.99 86.6838 205.126 84.0513C199.262 81.4189 194.628 77.6082 191.223 72.6193C187.818 67.6304 186.116 61.5906 186.116 54.5C186.116 47.3882 187.818 41.3378 191.223 36.3489C194.628 31.3599 199.262 27.5599 205.126 24.9487C210.99 22.3162 217.61 21 224.987 21C232.31 21 238.904 22.3162 244.768 24.9487C250.659 27.5599 255.307 31.3599 258.711 36.3489C262.143 41.3378 263.859 47.3882 263.859 54.5ZM246.065 54.5C246.065 49.8932 245.187 46.0082 243.43 42.8451C241.701 39.6819 239.255 37.283 236.094 35.6483C232.932 34.0136 229.23 33.1963 224.987 33.1963C220.745 33.1963 217.043 34.0136 213.881 35.6483C210.72 37.283 208.26 39.6819 206.504 42.8451C204.775 46.0082 203.91 49.8932 203.91 54.5C203.91 59.1068 204.775 62.9918 206.504 66.1549C208.26 69.3181 210.72 71.717 213.881 73.3517C217.043 74.9864 220.745 75.8037 224.987 75.8037C229.23 75.8037 232.932 74.9864 236.094 73.3517C239.255 71.717 241.701 69.3181 243.43 66.1549C245.187 62.9918 246.065 59.1068 246.065 54.5Z" fill="white"/>
<path d="M276.86 87.1084V21.8916H294.411V75.74H330V87.1084H276.86Z" fill="white"/>
<path d="M11.1303 178V112.545H54.4684V123.955H24.9691V139.552H51.592V150.962H24.9691V178H11.1303ZM123.926 145.273C123.926 152.411 122.573 158.483 119.867 163.49C117.182 168.497 113.518 172.322 108.873 174.964C104.249 177.585 99.0503 178.895 93.2761 178.895C87.4593 178.895 82.2392 177.574 77.6156 174.932C72.992 172.29 69.3379 168.465 66.6532 163.458C63.9686 158.451 62.6262 152.389 62.6262 145.273C62.6262 138.135 63.9686 132.062 66.6532 127.055C69.3379 122.048 72.992 118.234 77.6156 115.614C82.2392 112.972 87.4593 111.651 93.2761 111.651C99.0503 111.651 104.249 112.972 108.873 115.614C113.518 118.234 117.182 122.048 119.867 127.055C122.573 132.062 123.926 138.135 123.926 145.273ZM109.895 145.273C109.895 140.649 109.203 136.75 107.818 133.575C106.454 130.401 104.526 127.993 102.033 126.352C99.5403 124.712 96.6213 123.891 93.2761 123.891C89.9309 123.891 87.0119 124.712 84.519 126.352C82.0261 127.993 80.0872 130.401 78.7022 133.575C77.3386 136.75 76.6568 140.649 76.6568 145.273C76.6568 149.896 77.3386 153.795 78.7022 156.97C80.0872 160.145 82.0261 162.553 84.519 164.193C87.0119 165.834 89.9309 166.654 93.2761 166.654C96.6213 166.654 99.5403 165.834 102.033 164.193C104.526 162.553 106.454 160.145 107.818 156.97C109.203 153.795 109.895 149.896 109.895 145.273ZM134.177 178V112.545H160.001C164.944 112.545 169.163 113.43 172.657 115.198C176.173 116.945 178.847 119.428 180.679 122.645C182.533 125.841 183.46 129.602 183.46 133.927C183.46 138.273 182.522 142.013 180.647 145.145C178.772 148.256 176.056 150.642 172.498 152.304C168.961 153.966 164.678 154.797 159.65 154.797H142.359V143.675H157.412C160.054 143.675 162.249 143.312 163.996 142.588C165.743 141.864 167.043 140.777 167.895 139.328C168.769 137.879 169.206 136.079 169.206 133.927C169.206 131.754 168.769 129.921 167.895 128.43C167.043 126.938 165.733 125.809 163.964 125.042C162.217 124.254 160.012 123.859 157.348 123.859H148.016V178H134.177ZM169.525 148.213L185.793 178H170.516L154.6 148.213H169.525ZM233.669 112.545H247.508V155.053C247.508 159.825 246.368 164.001 244.088 167.581C241.83 171.161 238.666 173.952 234.596 175.955C230.527 177.936 225.786 178.927 220.374 178.927C214.941 178.927 210.189 177.936 206.12 175.955C202.05 173.952 198.886 171.161 196.627 167.581C194.369 164.001 193.24 159.825 193.24 155.053V112.545H207.078V153.87C207.078 156.363 207.622 158.579 208.708 160.518C209.816 162.457 211.372 163.98 213.375 165.088C215.377 166.196 217.711 166.75 220.374 166.75C223.059 166.75 225.392 166.196 227.373 165.088C229.376 163.98 230.921 162.457 232.007 160.518C233.115 158.579 233.669 156.363 233.669 153.87V112.545ZM258.894 112.545H275.961L293.986 156.523H294.753L312.779 112.545H329.846V178H316.422V135.397H315.879L298.94 177.68H289.8L272.861 135.237H272.317V178H258.894V112.545Z" fill="white"/>
</svg>
